<?xml version="1.0" standalone="no"?>
<!DOCTYPE svg PUBLIC "-//W3C//DTD SVG 20010904//EN"
 "http://www.w3.org/TR/2001/REC-SVG-20010904/DTD/svg10.dtd">
<svg version="1.0" xmlns="http://www.w3.org/2000/svg"
 width="212.000000pt" height="212.000000pt" viewBox="0 0 212.000000 212.000000"
 preserveAspectRatio="xMidYMid meet">
<metadata>
Created by potrace 1.14, written by Peter Selinger 2001-2017
</metadata>
<g transform="translate(0.000000,212.000000) scale(0.100000,-0.100000)"
fill="#000000" stroke="none">
<path d="M0 1055 l0 -1035 1060 0 1060 0 0 1035 0 1035 -1060 0 -1060 0 0
-1035z m562 551 c-3 -37 -8 -45 -28 -49 -21 -4 -24 -1 -18 17 10 33 34 76 42
76 4 0 6 -20 4 -44z m403 -72 c12 -5 45 -62 45 -79 0 -1 -13 -5 -30 -8 -47
-10 -38 -30 10 -22 50 8 51 -4 3 -30 -39 -21 -57 -55 -29 -55 13 0 14 -5 6
-26 -6 -14 -10 -50 -10 -81 0 -49 4 -59 34 -89 19 -19 39 -34 44 -34 22 0 69
51 81 88 8 22 12 58 9 81 -2 22 -1 41 3 41 3 0 36 -29 73 -64 36 -35 66 -59
65 -53 -1 7 1 19 5 29 4 9 11 47 15 85 l7 68 16 -50 c32 -102 41 -163 35 -252
-8 -119 -20 -155 -70 -202 -38 -37 -40 -41 -19 -41 23 0 53 14 86 40 18 15 18
14 2 -25 -33 -78 -107 -165 -163 -192 -30 -14 -32 -18 -18 -26 10 -5 42 -7 71
-5 54 5 63 -2 46 -30 -5 -6 -44 -17 -87 -22 -43 -5 -82 -16 -87 -22 -4 -7 -10
-42 -14 -78 -6 -59 -9 -68 -38 -86 -40 -27 -196 -87 -204 -79 -3 3 -8 17 -10
32 -1 14 -9 43 -16 64 l-14 39 42 11 c70 19 195 70 207 85 16 19 8 18 -48 -10
-74 -37 -140 -56 -230 -68 l-83 -11 -47 39 c-27 21 -50 41 -53 44 -3 3 -38 34
-78 69 -78 69 -115 122 -144 209 -22 68 -23 119 -2 211 13 58 19 71 33 66 14
-4 16 7 13 104 -3 94 -1 109 14 115 31 12 44 -13 44 -81 0 -58 3 -67 29 -94
16 -16 33 -29 38 -29 33 1 62 65 66 144 3 80 -19 116 -81 131 -22 6 -43 13
-47 17 -4 3 -2 31 5 61 8 42 16 56 32 60 27 8 38 1 38 -23 0 -20 33 -86 54
-108 9 -10 11 -4 8 25 l-4 38 20 -31 c39 -61 85 -83 224 -109 16 -3 16 0 4 24
-7 14 -16 44 -20 66 -7 38 -6 39 8 19 15 -21 73 -51 81 -42 3 3 1 18 -4 34 -5
16 -12 48 -15 71 -5 34 -3 42 11 46 10 3 19 5 20 6 1 0 9 -2 18 -5z m181 -152
c-10 -9 -36 14 -36 32 0 20 1 20 20 -4 10 -14 17 -26 16 -28z m-566 -92 c0
-16 -4 -30 -9 -30 -12 0 -24 37 -16 50 12 20 25 10 25 -20z m520 -1 c0 -18 -2
-19 -15 -9 -15 12 -12 30 6 30 5 0 9 -10 9 -21z m150 -28 c0 -21 -16 -2 -24
29 -7 24 -6 24 8 6 9 -11 16 -27 16 -35z m-190 -96 c10 -12 9 -16 -4 -21 -16
-6 -46 11 -46 27 0 15 37 10 50 -6z m393 -550 c-10 -13 -25 -27 -33 -30 -8 -4
-2 8 14 24 36 37 43 40 19 6z m-193 -66 c-12 -9 -11 -10 5 -4 23 8 29 9 68 7
29 -2 38 -22 10 -23 -11 0 -13 -3 -5 -6 24 -9 12 -25 -14 -19 -15 4 -51 4 -80
0 -46 -5 -53 -9 -60 -33 -4 -14 -6 -30 -5 -34 1 -5 -4 -5 -10 -1 -8 5 -11 1
-7 -13 4 -16 1 -19 -18 -15 -23 4 -24 8 -22 71 l3 66 65 6 c36 3 70 6 75 7 6
1 3 -3 -5 -9z m188 -11 c24 5 26 4 13 -11 -9 -12 -10 -17 -2 -17 6 0 14 7 17
15 5 11 10 12 18 5 7 -5 22 -8 34 -5 12 2 22 0 22 -5 0 -16 -12 -40 -21 -40
-4 0 -6 7 -3 15 7 17 -7 20 -23 4 -13 -13 -83 -1 -80 15 1 6 -3 10 -10 9 -8
-2 -10 4 -6 14 4 9 8 12 10 6 2 -5 16 -8 31 -5z m175 -46 c-5 -10 -8 -11 -13
-1 -6 8 -9 6 -13 -7 -4 -17 -5 -16 -6 3 -1 16 4 21 18 20 12 -1 17 -6 14 -15z
m47 -7 c-6 -8 -8 -20 -4 -26 5 -8 3 -9 -7 -3 -8 5 -23 7 -34 5 -17 -3 -17 -1
5 18 30 24 59 29 40 6z m30 -11 c0 -8 -5 -12 -10 -9 -6 4 -8 11 -5 16 9 14 15
11 15 -7z m41 1 c5 4 6 -1 3 -9 -8 -20 -24 -11 -23 12 0 11 2 12 6 4 2 -6 9
-10 14 -7z m76 -41 c-3 -3 -12 -4 -19 -1 -8 3 -5 6 6 6 11 1 17 -2 13 -5z
m-999 -54 c11 -44 8 -48 -20 -23 -36 32 -27 6 10 -30 l38 -37 63 20 c49 17
130 51 181 77 3 2 4 -55 2 -126 l-3 -129 -31 -11 c-41 -15 -101 -14 -116 1 -9
9 -12 8 -12 -5 0 -20 -23 -21 -119 -7 -76 11 -91 21 -72 53 13 21 12 20 -13
-3 -21 -19 -30 -22 -44 -13 -22 14 -19 30 30 138 38 83 72 135 89 135 3 0 11
-18 17 -40z m326 -1 c20 3 23 -1 18 -24 -2 -14 -9 -25 -14 -25 -6 0 -8 7 -4
15 3 9 0 15 -9 15 -9 0 -15 9 -15 23 0 16 3 18 9 9 4 -8 11 -13 15 -13z m-22
-81 c-8 -8 -9 -4 -5 13 4 13 8 18 11 10 2 -7 -1 -18 -6 -23z m9 -101 c-10 -9
-11 -8 -5 6 3 10 9 15 12 12 3 -3 0 -11 -7 -18z m-10 -74 c-8 -15 -10 -15 -11
-2 0 17 10 32 18 25 2 -3 -1 -13 -7 -23z"/>
<path d="M545 1410 c3 -5 13 -10 21 -10 8 0 12 5 9 10 -3 6 -13 10 -21 10 -8
0 -12 -4 -9 -10z"/>
<path d="M601 1034 c0 -11 3 -14 6 -6 3 7 2 16 -1 19 -3 4 -6 -2 -5 -13z"/>
<path d="M630 794 c0 -14 5 -34 11 -45 10 -19 12 -19 28 -5 26 24 91 30 131
13 l35 -15 -42 -18 c-24 -11 -43 -22 -43 -26 0 -13 13 -9 55 15 58 33 56 65
-5 89 -25 9 -73 17 -107 17 -61 1 -63 0 -63 -25z"/>
<path d="M797 273 c-3 -5 -14 -26 -26 -48 l-21 -40 36 42 36 43 50 -65 c27
-36 51 -65 54 -65 6 0 -16 43 -25 50 -4 3 -18 21 -31 40 -33 48 -61 64 -73 43z"/>
</g>
</svg>
