<?xml version="1.0" standalone="no"?>
<!DOCTYPE svg PUBLIC "-//W3C//DTD SVG 20010904//EN"
 "http://www.w3.org/TR/2001/REC-SVG-20010904/DTD/svg10.dtd">
<svg version="1.0" xmlns="http://www.w3.org/2000/svg"
 width="75.000000pt" height="75.000000pt" viewBox="0 0 75.000000 75.000000"
 preserveAspectRatio="xMidYMid meet">
<metadata>
Created by potrace 1.14, written by Peter Selinger 2001-2017
</metadata>
<g transform="translate(0.000000,75.000000) scale(0.100000,-0.100000)"
fill="#000000" stroke="none">
<path d="M0 375 l0 -375 375 0 375 0 0 375 0 375 -375 0 -375 0 0 -375z m195
310 c0 -13 -8 -21 -22 -23 -19 -3 -23 1 -23 23 0 22 4 26 23 23 14 -2 22 -10
22 -23z m85 0 c0 -18 -5 -25 -19 -25 -11 0 -23 5 -26 10 -11 18 3 40 25 40 15
0 20 -7 20 -25z m88 3 c-2 -15 -11 -24 -25 -26 -19 -3 -23 1 -23 22 0 21 5 26
26 26 21 0 25 -4 22 -22z m210 -250 c2 -172 2 -178 -18 -178 -18 0 -20 8 -22
153 l-3 152 -167 3 -168 2 0 -155 0 -155 -25 0 -25 0 0 173 c0 96 3 177 7 181
4 3 99 5 212 4 l206 -3 3 -177z m-145 62 l58 -24 -3 -70 -3 -71 -40 -19 c-51
-25 -99 -25 -150 0 l-40 19 -3 70 -3 70 58 27 c32 14 60 25 63 24 3 0 31 -12
63 -26z m-216 -370 c19 -85 19 -90 3 -90 -10 0 -20 7 -24 15 -7 19 -42 19 -50
0 -6 -16 -36 -21 -36 -6 0 11 28 139 35 159 2 6 15 12 28 12 22 0 25 -8 44
-90z m167 82 c9 -16 -12 -35 -33 -29 -27 7 -51 -17 -51 -51 0 -42 14 -55 49
-50 25 4 31 1 31 -13 0 -22 -31 -33 -70 -24 -32 7 -60 47 -60 85 0 26 25 77
42 83 21 9 86 8 92 -1z m101 -34 l18 -43 13 30 c7 17 13 36 14 43 0 6 11 12
24 12 22 0 25 -5 31 -57 3 -32 8 -73 11 -90 4 -28 2 -33 -15 -33 -15 0 -22 9
-26 38 -10 57 -12 59 -25 25 -15 -42 -35 -42 -57 0 l-18 32 -3 -48 c-3 -41 -6
-47 -25 -47 -22 0 -22 1 -13 90 9 83 11 90 32 90 16 0 26 -11 39 -42z"/>
<path d="M325 483 l-30 -16 30 -13 c38 -16 52 -16 90 0 l30 13 -32 16 c-39 21
-50 21 -88 0z"/>
<path d="M280 400 c0 -45 3 -51 30 -65 44 -23 50 -19 50 33 0 45 -2 48 -40 64
l-40 17 0 -49z"/>
<path d="M418 432 c-36 -16 -38 -19 -38 -64 0 -52 6 -56 50 -33 27 14 30 20
30 65 0 28 -1 50 -2 49 -2 0 -20 -8 -40 -17z"/>
<path d="M167 157 c-10 -26 -9 -57 2 -57 15 0 18 12 11 45 -5 25 -7 27 -13 12z"/>
</g>
</svg>
